<svg width="329" height="377" viewBox="0 0 329 377" fill="none" xmlns="http://www.w3.org/2000/svg">
<path d="M212.954 334.075C217.662 328.244 220.471 311.505 220.471 311.505C224.464 314.469 227.965 318.044 230.844 322.099C236.087 321.317 241.242 320.031 246.238 318.258C251.379 316.495 256.269 314.071 260.784 311.045C250.77 296.305 233.82 271.193 223.382 263.298C219.347 260.249 206.846 257.273 206.846 257.273C204.018 254.712 197.846 257.273 197.846 257.273C164.452 265.767 133.914 254.767 133.914 254.767C133.914 254.767 129.584 252.768 126.037 254.767C122.584 254.386 119.099 254.386 115.646 254.767C108 255.818 99.6444 264.551 96.199 268.521L66.8583 302.505C66.8583 302.505 65.8725 315.881 67.9453 317.65C84.5272 331.864 108.976 299.566 108.976 299.566C109.133 299.631 109.511 327.691 122.601 342.366C122.601 342.366 131.878 346.604 167.953 343.287C203.751 339.998 212.954 334.075 212.954 334.075Z" fill="url(#paint0_linear)"/>
<path opacity="0.2" d="M87.8251 292.464C82.2978 292.952 79.396 291.626 78.2905 289.267C86.2867 280.055 95.6186 269.203 96.199 268.531L97.1202 267.48C101.266 276.757 104.711 290.99 87.8251 292.464Z" fill="black"/>
<path opacity="0.2" d="M112.395 321.731C110.518 314.463 109.373 307.025 108.977 299.53C108.977 299.53 112.993 294.269 114.108 288.742C114.108 288.779 119.322 309.571 112.395 321.731Z" fill="black"/>
<path opacity="0.2" d="M227.795 318.259C225.617 315.738 223.16 313.472 220.471 311.506C220.471 311.506 220.867 298.305 224.552 294.307C227.518 291.092 230.678 307.821 227.795 318.259Z" fill="black"/>
<path d="M212.954 334.076C217.661 328.244 220.471 311.506 220.471 311.506C224.464 314.47 227.965 318.045 230.844 322.1" stroke="black" stroke-linecap="round" stroke-linejoin="round"/>
<path d="M260.784 311.045C250.77 296.305 233.82 271.193 223.382 263.298C219.347 260.249 206.846 257.273 206.846 257.273C204.018 254.712 197.846 257.273 197.846 257.273C164.452 265.767 133.914 254.767 133.914 254.767C133.914 254.767 129.584 252.768 126.037 254.767C122.584 254.386 119.099 254.386 115.646 254.767C108 255.818 99.6444 264.551 96.199 268.521L66.8583 302.505C66.8583 302.505 65.8725 315.881 67.9453 317.65C84.5272 331.864 108.976 299.566 108.976 299.566C109.133 299.631 109.511 327.691 122.601 342.366" stroke="black" stroke-linecap="round" stroke-linejoin="round"/>
<path d="M199.063 249.167L198.621 249.351C198.777 249.313 198.926 249.251 199.063 249.167Z" fill="black"/>
<path d="M209.002 224.312C212.503 224.828 213.36 222.258 213.36 222.258C213.36 222.258 209.002 224.312 205.143 216.408C202.95 211.904 204.037 203.631 205.373 197.348C208.072 192.899 211.987 186.745 212.503 179.449C213.424 166.921 207.538 160.573 200.748 162.434C200.748 162.434 200.251 151.849 190.698 148.054C181.145 144.259 179.643 147.372 170.431 145.069C161.219 142.766 152.209 144.775 148.911 150.735C145.614 156.695 144.49 167.519 138.861 171.711C133.232 175.902 123.385 185.99 126.498 197.275C129.612 208.56 127.843 212.42 123.735 217.753C119.626 223.087 122.132 233.589 129.971 236.887C129.971 236.887 126.646 235.109 128.995 232.134C128.995 232.134 130.837 239.209 136.982 237.919C143.126 236.629 150.929 236.196 154.909 240.553C158.888 244.911 173.434 246.081 176.714 242.764C179.993 239.448 182.536 242.525 188.478 245.528C194.42 248.531 201.016 245.897 201.016 245.897C201.016 245.897 200.463 248.467 199.044 249.231C200.251 248.725 203.595 247.131 204.571 244.736C205.548 242.341 206.101 240.028 204.931 234.437C209.049 232.824 207.151 230.098 207.151 230.098C211.038 232.281 212.881 225.832 212.881 225.832C209.26 225.777 209.002 224.312 209.002 224.312Z" fill="black"/>
<path d="M201.19 258.425C201.19 258.425 175.184 269.995 166.828 270.465C158.473 270.935 130.053 255.818 130.053 255.818L151.72 249.904C154.668 244.284 154.742 237.67 154.033 229.922C153.811 227.518 153.526 225.252 153.213 223.216C152.476 218.306 151.656 214.879 151.656 214.879L182.277 216.15C181.639 218.096 181.113 220.077 180.702 222.083C179.855 226.243 179.371 230.469 179.255 234.713C178.905 245.307 180.545 251.295 180.545 251.295L201.19 258.425Z" fill="white" stroke="black" stroke-linecap="round" stroke-linejoin="round"/>
<path d="M137.884 259.798C137.884 259.798 154.281 262.672 158.353 262.202C162.425 261.732 165.621 265.74 165.621 265.74" fill="white"/>
<path d="M137.884 259.798C137.884 259.798 154.281 262.672 158.353 262.202C162.425 261.732 165.621 265.74 165.621 265.74" stroke="black" stroke-linecap="round" stroke-linejoin="round"/>
<path d="M195.506 260.839C195.506 260.839 178.795 262.681 174.751 262.773C170.707 262.866 169.509 265.74 169.509 265.74" fill="white"/>
<path d="M195.506 260.839C195.506 260.839 178.795 262.681 174.751 262.773C170.707 262.866 169.509 265.74 169.509 265.74" stroke="black" stroke-linecap="round" stroke-linejoin="round"/>
<path d="M180.702 222.083C179.856 226.243 179.372 230.469 179.256 234.713C176.742 236.927 173.832 238.647 170.679 239.78C165.53 241.484 158.704 235.174 154.033 229.923C153.812 227.518 153.526 225.252 153.213 223.216L180.702 222.083Z" fill="black"/>
<path d="M144.544 189.104C144.544 189.104 142.02 185.226 139.772 186.009C137.525 186.792 137.525 197.275 137.7 200.039C137.875 202.803 143.374 208.873 145.677 207.206" fill="white"/>
<path d="M144.544 189.104C144.544 189.104 142.02 185.226 139.772 186.009C137.525 186.792 137.525 197.275 137.7 200.039C137.875 202.803 143.374 208.873 145.677 207.206" stroke="black" stroke-linecap="round" stroke-linejoin="round"/>
<path d="M199.983 197.275C199.983 197.275 203.511 194.29 205.446 195.69C207.381 197.09 204.341 207.15 203.382 209.72C202.424 212.291 195.396 216.547 193.673 214.28" fill="white"/>
<path d="M199.983 197.275C199.983 197.275 203.511 194.29 205.446 195.69C207.381 197.09 204.341 207.15 203.382 209.72C202.424 212.291 195.396 216.547 193.673 214.28" stroke="black" stroke-linecap="round" stroke-linejoin="round"/>
<path d="M165.733 237.505C156.456 236.132 147.244 220.398 146.129 215.967C144.895 211.038 142.177 186.727 147.474 173.406C153.435 158.437 165.899 152.117 178.049 153.904C190.2 155.691 200.315 165.336 201.706 181.393C202.941 195.672 193.323 218.168 190.716 222.535C188.376 226.459 175.525 238.942 165.733 237.505Z" fill="white" stroke="black" stroke-linecap="round" stroke-linejoin="round"/>
<path d="M186.763 198.5C186.515 200.222 185.538 201.503 184.589 201.355C183.64 201.208 183.088 199.716 183.336 197.993C183.585 196.27 184.562 194.999 185.51 195.137C186.459 195.275 187.021 196.777 186.763 198.5Z" fill="black"/>
<path d="M156.475 194.041C156.226 195.755 156.788 197.265 157.737 197.404C158.686 197.542 159.653 196.261 159.902 194.539C160.15 192.816 159.598 191.314 158.649 191.176C157.7 191.038 156.733 192.319 156.475 194.041Z" fill="black"/>
<path d="M177.22 217.302C177.22 217.302 172.412 226.735 166.276 225.188C160.141 223.64 160.187 215.054 160.187 214.806L161.053 215.137C163.477 216.045 165.991 216.694 168.552 217.072C171.031 217.397 173.535 217.496 176.032 217.367C176.778 217.339 177.22 217.302 177.22 217.302Z" fill="#757575"/>
<path d="M169.215 197.671C169.455 203.594 164.37 204.598 165.346 206.653C166.039 207.945 167.209 208.917 168.607 209.361" fill="white"/>
<path d="M169.215 197.671C169.455 203.594 164.37 204.598 165.346 206.653C166.039 207.945 167.209 208.917 168.607 209.361" stroke="black" stroke-linecap="round" stroke-linejoin="round"/>
<path d="M160.187 214.778C160.187 214.778 160.132 223.631 166.276 225.179C172.421 226.727 177.22 217.284 177.22 217.284" stroke="black" stroke-linecap="round" stroke-linejoin="round"/>
<path d="M150.993 186.22C150.993 186.22 156.52 179.237 165.097 181.448" stroke="black" stroke-linecap="round" stroke-linejoin="round"/>
<path d="M193.451 192.484C193.451 192.484 190.163 184.193 181.328 183.853" stroke="black" stroke-linecap="round" stroke-linejoin="round"/>
<path d="M219.366 186.911L217.652 188.809L216.326 190.274L200.969 199.191L201.595 194.889L214.17 187.584L216.888 187.234L219.366 186.911Z" fill="url(#paint1_linear)" stroke="black" stroke-linecap="round" stroke-linejoin="round"/>
<path d="M215.644 190.651C213.369 190.218 214.133 187.574 214.133 187.574L219.329 186.911L215.644 190.651Z" fill="white" stroke="black" stroke-linecap="round" stroke-linejoin="round"/>
<path d="M219.33 186.911L217.617 188.8C217.456 188.759 217.306 188.683 217.177 188.579C217.049 188.474 216.944 188.343 216.871 188.194C216.799 188.045 216.759 187.882 216.756 187.716C216.752 187.55 216.785 187.385 216.852 187.234L219.33 186.911Z" fill="black"/>
<path d="M187.15 166.718C187.15 166.718 181.319 174.364 168.661 176.575C152.807 179.339 144.055 193.047 144.277 198.767C141.16 190.744 140.222 182.038 141.559 173.535C144.71 152.495 164.341 146.479 178.61 147.944C192.88 149.409 199.798 163.715 199.798 163.715C199.798 163.715 210.512 172.061 209.01 182.582C207.518 192.651 205.077 192.936 203.778 195.212C201.991 198.362 204.34 199.679 198.076 204.866C198.076 204.866 200.554 190.808 197.477 180.325C194.4 169.841 187.15 166.718 187.15 166.718Z" fill="black"/>
<path d="M191.074 163.189C191.074 163.189 185.483 184.543 153.701 187.878C153.701 187.878 175.11 184.009 185.022 164.452L191.074 163.189Z" fill="black"/>
<path d="M166.958 220.553C166.958 220.553 171.324 218.997 173.01 220.553C173.01 220.553 170.136 225.159 166.442 224.036C162.748 222.912 161.965 218.508 161.965 218.508C161.965 218.508 163.964 217.541 166.958 220.553Z" fill="#BFBFBF"/>
<path d="M176.641 217.375L175.397 218.785C170.495 219.41 165.516 218.614 161.054 216.491L160.621 214.962C163.186 215.934 165.843 216.641 168.552 217.071C171.235 217.396 173.941 217.498 176.641 217.375Z" fill="white"/>
<path d="M158.814 214.225C158.814 214.225 168.8 218.877 178.455 217.117" stroke="black" stroke-linecap="round" stroke-linejoin="round"/>
<path d="M190.228 157.883C190.228 157.883 183.457 166.754 166.958 168.108C150.459 169.463 145.678 176.298 145.678 176.298" stroke="#757575" stroke-linecap="round" stroke-linejoin="round"/>
<path d="M153.074 158.584C151.545 158.879 149.389 159.422 148.708 160.979" stroke="#757575" stroke-linecap="round" stroke-linejoin="round"/>
<path d="M192.264 150.992C182.315 158.426 169.464 159.283 156.41 158.233" stroke="#757575" stroke-linecap="round" stroke-linejoin="round"/>
<path d="M129.233 218.997C128.284 219.98 127.54 221.142 127.044 222.415C126.547 223.688 126.308 225.047 126.341 226.413" stroke="#757575" stroke-linecap="round" stroke-linejoin="round"/>
<path d="M141.127 177.533C136.521 180.159 132.79 184.986 132.541 190.43C132.126 199.642 138.713 207.933 131.878 215.957" stroke="#757575" stroke-linecap="round" stroke-linejoin="round"/>
<path d="M139.183 207.491C139.183 207.491 144.287 212.89 140.97 218.38C137.654 223.87 135.94 229.435 142.739 233.488" stroke="#757575" stroke-linecap="round" stroke-linejoin="round"/>
<path d="M176.447 179.163C175.36 179.843 174.234 180.458 173.075 181.006" stroke="#757575" stroke-linecap="round" stroke-linejoin="round"/>
<path d="M188.367 165.566C186.386 170.126 183.276 174.105 179.329 177.128" stroke="#757575" stroke-linecap="round" stroke-linejoin="round"/>
<path d="M192.264 166.331C192.264 166.331 199.164 170.08 201.817 176.299C204.47 182.517 200.73 191.268 202.462 194.29" stroke="#757575" stroke-linecap="round" stroke-linejoin="round"/>
<path d="M202.997 226.984C203.947 227.582 204.99 228.018 206.083 228.274" stroke="#757575" stroke-linecap="round" stroke-linejoin="round"/>
<path d="M197.532 218.38C197.953 220.627 198.9 222.742 200.296 224.552" stroke="#757575" stroke-linecap="round" stroke-linejoin="round"/>
<path d="M194.806 223.326C194.806 223.326 194.162 230.346 198.639 234.989C203.116 239.632 201.808 242.524 201.808 242.524" stroke="#757575" stroke-linecap="round" stroke-linejoin="round"/>
<path d="M187.391 231.359C187.391 231.359 190.062 238.471 185.824 240.839" stroke="#757575" stroke-linecap="round" stroke-linejoin="round"/>
<path d="M197.532 164.378C197.532 164.378 207.61 166.414 209.084 170.826C210.558 175.239 209.084 180.315 209.084 180.315" stroke="#757575" stroke-linecap="round" stroke-linejoin="round"/>
<path d="M67.9453 317.65C59.3964 312.906 61.0546 295.845 66.7109 274.537C69.4746 264.072 79.0736 237.688 78.8802 236.767C78.363 234.993 77.6524 233.282 76.7614 231.664C76.7614 231.664 79.525 228.845 80.6858 228.338C85.6696 226.21 95.5082 223.529 100.031 225.399C101.441 225.98 103.486 229.268 103.2 230.613C102.915 231.958 98.8798 236.38 99.2667 240.618C99.6536 244.855 95.978 258.839 96.0793 264.413C96.0793 265.555 96.1438 266.992 96.2083 268.558C96.2083 269.553 96.2083 286.983 89.5018 295.882" fill="url(#paint2_linear)"/>
<path d="M67.9453 317.65C59.3964 312.906 61.0546 295.845 66.7109 274.537C69.4746 264.072 79.0736 237.688 78.8802 236.767C78.363 234.993 77.6524 233.282 76.7614 231.664C76.7614 231.664 79.525 228.845 80.6858 228.338C85.6696 226.21 95.5082 223.529 100.031 225.399C101.441 225.98 103.486 229.268 103.2 230.613C102.915 231.958 98.8798 236.38 99.2667 240.618C99.6536 244.855 95.978 258.839 96.0793 264.413C96.0793 265.555 96.1438 266.992 96.2083 268.558C96.2083 269.553 96.2083 286.983 89.5018 295.882" stroke="black" stroke-linecap="round" stroke-linejoin="round"/>
<path d="M95.739 185.299C95.9233 186.994 99.5805 199.117 100.714 211.434C103.025 210.594 105.199 209.414 107.162 207.933C109.456 205.925 114.255 207.528 114.062 208.854C113.869 210.181 109.456 209.96 105.725 214.971C101.994 219.982 101.229 225.537 96.2733 228.209C91.3172 230.88 83.6158 231.829 80.6126 228.264C77.6095 224.699 74.2747 205.786 75.4446 203.815C76.4426 202.376 77.6907 201.128 79.1295 200.13C79.1295 200.13 80.3915 196.445 82.3077 196.16C84.2238 195.874 88.7562 195.782 88.7562 195.782C89.8152 194.997 91.1294 194.635 92.4411 194.769C92.4411 194.769 90.9487 180.582 89.6774 175.819C88.4061 171.057 94.2374 171.084 95.739 185.299Z" fill="white" stroke="black" stroke-linecap="round" stroke-linejoin="round"/>
<path d="M92.5058 194.769C96.421 196.537 98.1529 203.981 98.1529 204.515C97.3703 207.161 96.429 209.757 95.334 212.29C94.3575 214.409 92.2479 212.29 92.2479 212.29C92.2479 212.29 91.603 215.054 90.1199 213.847C88.2314 212.29 88.2314 207.251 88.2314 207.251C88.2314 207.251 88.0011 211.443 86.9048 213.488C85.8086 215.533 83.5977 214.169 83.9201 208.117C83.9201 208.117 79.4061 207.012 79.2495 205.906" stroke="black" stroke-linecap="round" stroke-linejoin="round"/>
<path d="M88.2307 207.251C87.1252 204.414 82.8784 201.807 82.8784 201.807" stroke="black" stroke-linecap="round" stroke-linejoin="round"/>
<path d="M92.2471 212.291C92.2471 212.291 94.4672 205.843 93.8685 204.516C93.2697 203.189 89.4927 199.532 89.4927 199.532" stroke="black" stroke-linecap="round" stroke-linejoin="round"/>
<path d="M100.713 211.461C100.713 211.461 96.5494 212.382 94.6978 217.688" stroke="black" stroke-linecap="round" stroke-linejoin="round"/>
<path d="M78.8806 236.73C78.8806 236.73 85.6055 242.258 92.8371 237.652" stroke="black" stroke-linecap="round" stroke-linejoin="round"/>
<path d="M84.537 253.138C83.2425 253.894 81.8552 254.48 80.4099 254.879" stroke="black" stroke-linecap="round" stroke-linejoin="round"/>
<path d="M100.713 234.989C97.464 241.059 93.0867 246.452 87.8157 250.88" stroke="black" stroke-linecap="round" stroke-linejoin="round"/>
<path d="M126.037 254.768C126.037 254.768 139.164 267.093 146.847 270.428" stroke="black" stroke-linecap="round" stroke-linejoin="round"/>
<path d="M112.948 268.107C113.54 269.746 113.93 271.45 114.108 273.183" stroke="black" stroke-linecap="round" stroke-linejoin="round"/>
<path d="M108.386 257.66C109.566 259.88 110.634 262.174 111.602 264.505" stroke="black" stroke-linecap="round" stroke-linejoin="round"/>
<path d="M161.965 274.537C161.965 274.537 183.447 274.832 197.238 265.417" stroke="black" stroke-linecap="round" stroke-linejoin="round"/>
<path d="M206.846 257.273C205 258.528 203.311 260.001 201.816 261.658" stroke="black" stroke-linecap="round" stroke-linejoin="round"/>
<path d="M217.634 273.018C215.427 275.307 212.913 277.279 210.163 278.877" stroke="black" stroke-linecap="round" stroke-linejoin="round"/>
<path d="M222.314 267.287C221.615 268.341 220.858 269.356 220.048 270.327" stroke="black" stroke-linecap="round" stroke-linejoin="round"/>
<path d="M108.977 299.53C108.977 299.53 114.219 292.74 114.108 284.597" stroke="black" stroke-linecap="round" stroke-linejoin="round"/>
<path d="M220.472 311.505C220.472 311.505 219.348 297.843 228.929 287.857" stroke="black" stroke-linecap="round" stroke-linejoin="round"/>
<path d="M230.844 295.385C231.305 295.845 222.664 303.381 220.61 306.753" stroke="black" stroke-linecap="round" stroke-linejoin="round"/>
<path d="M136.419 329.165C136.419 329.165 167.86 341.657 184.147 341.399" stroke="black" stroke-linecap="round" stroke-linejoin="round"/>
<path d="M170.568 298.995H166.837C166.232 298.995 165.741 299.486 165.741 300.091V305.784C165.741 306.39 166.232 306.881 166.837 306.881H170.568C171.174 306.881 171.665 306.39 171.665 305.784V300.091C171.665 299.486 171.174 298.995 170.568 298.995Z" fill="#BFBFBF"/>
<path d="M170.569 307.471H166.884C166.438 307.469 166.012 307.29 165.698 306.974C165.383 306.658 165.207 306.231 165.207 305.785V300.092C165.207 299.647 165.383 299.219 165.698 298.903C166.012 298.587 166.438 298.409 166.884 298.406H170.569C170.789 298.406 171.008 298.45 171.212 298.535C171.416 298.62 171.602 298.744 171.757 298.901C171.913 299.057 172.036 299.243 172.12 299.448C172.204 299.652 172.246 299.871 172.245 300.092V305.785C172.246 306.006 172.204 306.225 172.12 306.43C172.036 306.634 171.913 306.82 171.757 306.977C171.602 307.133 171.416 307.258 171.212 307.343C171.008 307.427 170.789 307.471 170.569 307.471ZM166.884 299.576C166.748 299.579 166.62 299.634 166.525 299.731C166.43 299.827 166.377 299.957 166.377 300.092V305.785C166.377 305.92 166.43 306.048 166.525 306.143C166.62 306.238 166.749 306.292 166.884 306.292H170.569C170.635 306.293 170.702 306.281 170.764 306.256C170.826 306.231 170.882 306.194 170.93 306.146C170.977 306.099 171.014 306.043 171.039 305.981C171.064 305.919 171.076 305.852 171.075 305.785V300.092C171.076 300.025 171.064 299.958 171.039 299.895C171.014 299.833 170.977 299.776 170.93 299.728C170.883 299.68 170.827 299.642 170.765 299.616C170.702 299.59 170.636 299.576 170.569 299.576H166.884Z" fill="black"/>
<path d="M180.546 251.331C180.546 251.331 197.239 254.767 168.709 298.12C168.709 298.12 135.471 256.02 151.722 249.903" stroke="black" stroke-linecap="round" stroke-linejoin="round"/>
<path d="M169.298 297.688C169.298 298.323 169.012 298.839 168.662 298.839C168.312 298.839 168.026 298.323 168.026 297.688C168.026 297.052 168.312 296.536 168.662 296.536C169.012 296.536 169.298 297.052 169.298 297.688Z" fill="black"/>
<path d="M323.74 31L327.69 41.62L310 40.15L323.74 31Z" stroke="black" stroke-linecap="round" stroke-linejoin="round"/>
<path d="M0.993896 18.0186L6.98838 14.7057L5.53469 21.4117L12.1603 18.5704L11.5496 25.9064L18.1606 22.108L18.7038 29.401" stroke="black" stroke-linecap="round" stroke-linejoin="round"/>
<path d="M4.18976 351.83L0.999756 371.28H21.3598L22.9498 365.29L9.38977 365.17L11.9798 351L4.18976 351.83Z" stroke="black" stroke-linecap="round" stroke-linejoin="round"/>
<path d="M314.85 228.85C316.664 227.036 316.663 224.096 314.85 222.283C313.037 220.47 310.097 220.47 308.283 222.283C306.47 224.096 306.47 227.036 308.283 228.85C310.097 230.663 313.037 230.663 314.85 228.85Z" stroke="black" stroke-linecap="round" stroke-linejoin="round"/>
<path d="M170 366L183 374" stroke="black" stroke-linecap="round" stroke-linejoin="round"/>
<path d="M179 366L174 376" stroke="black" stroke-linecap="round" stroke-linejoin="round"/>
<path d="M28.9998 156L10.9998 162" stroke="black" stroke-linecap="round" stroke-linejoin="round"/>
<path d="M21.9998 165L15.9998 152" stroke="black" stroke-linecap="round" stroke-linejoin="round"/>
<path d="M323.61 332C323.45 332 327.61 337 327.61 337L322 341.48L318 336.48L323.61 332Z" stroke="black" stroke-linecap="round" stroke-linejoin="round"/>
<path d="M32.6598 258.83C32.6598 259.588 32.4351 260.328 32.0143 260.958C31.5934 261.588 30.9953 262.079 30.2954 262.368C29.5956 262.658 28.8255 262.734 28.0826 262.586C27.3396 262.439 26.6572 262.074 26.1215 261.538C25.5859 261.003 25.2211 260.32 25.0733 259.577C24.9256 258.834 25.0014 258.064 25.2913 257.364C25.5812 256.664 26.0721 256.066 26.7019 255.645C27.3318 255.225 28.0723 255 28.8298 255C29.3331 254.999 29.8317 255.097 30.297 255.289C30.7623 255.481 31.185 255.763 31.5409 256.119C31.8968 256.475 32.1789 256.898 32.3709 257.363C32.5629 257.828 32.6611 258.327 32.6598 258.83V258.83Z" stroke="black" stroke-linecap="round" stroke-linejoin="round"/>
<path d="M183 1.47258C183.005 3.55044 182.394 5.5832 181.244 7.31352C180.093 9.04383 178.455 10.3939 176.537 11.1928C174.619 11.9918 172.507 12.2036 170.468 11.8016C168.43 11.3995 166.556 10.4017 165.085 8.93431C163.614 7.46696 162.611 5.59609 162.204 3.55855C161.796 1.521 162.002 -0.591601 162.796 -2.51182C163.59 -4.43204 164.936 -6.07354 166.663 -7.22851C168.391 -8.38348 170.422 -8.99999 172.5 -9C175.28 -9.00001 177.946 -7.89752 179.915 -5.93432C181.883 -3.97111 182.992 -1.30744 183 1.47258V1.47258Z" stroke="black" stroke-linecap="round" stroke-linejoin="round"/>
<path d="M257.414 175.899L255.757 170.723L263.792 171.005L262.484 166.583L269.919 165.706" stroke="black" stroke-linecap="round" stroke-linejoin="round"/>
<defs>
<linearGradient id="paint0_linear" x1="163.704" y1="253.879" x2="163.704" y2="344.555" gradientUnits="userSpaceOnUse">
<stop stop-color="#0CDB78"/>
<stop offset="1" stop-color="#00C99E"/>
</linearGradient>
<linearGradient id="paint1_linear" x1="210.167" y1="186.911" x2="210.167" y2="199.191" gradientUnits="userSpaceOnUse">
<stop stop-color="#0CDB78"/>
<stop offset="1" stop-color="#00C99E"/>
</linearGradient>
<linearGradient id="paint2_linear" x1="82.6137" y1="224.769" x2="82.6137" y2="317.65" gradientUnits="userSpaceOnUse">
<stop stop-color="#0CDB78"/>
<stop offset="1" stop-color="#00C99E"/>
</linearGradient>
</defs>
</svg>