<svg width="326" height="368" viewBox="0 0 326 368" fill="none" xmlns="http://www.w3.org/2000/svg"><path d="M94.057 52.114c-1.053-3.132 10.763-17.026 10.763-17.026l6.401 6.804S96.194 58.25 94.057 52.114z" fill="url(#paint0_linear)" stroke="#263238" stroke-linecap="round" stroke-linejoin="round"/><path d="M77.878 31.976c3.437 3.053 5.77.699 5.77.699a2.365 2.365 0 001.763 2.885c1.595.483 7.81-2.5 11.994-2.5a96.292 96.292 0 011.812 20.728s14.378 1.467 16.327-8.863c0 0-2.727-6.499-4.608-12.467-2.541-8.065-2.886-10.28-4.215-11.984-2.107-2.678-19.567-7.297-24.244-7.494-4.678-.197-7.209 17.627-13.048 25.88a4.066 4.066 0 004.185-.483c1.605-1.024 4.264-6.401 4.264-6.401z" fill="#fff" stroke="#263238" stroke-linecap="round" stroke-linejoin="round"/><path d="M77.878 31.976c2.846-7.16 6.45-10.104 6.45-10.104s.985-2.54 0-3.318m-.679 14.121c.187-2.137 7.69-4.382 8.567-5.642.877-1.26 0-6.628 0-6.628m5.189 12.654a7.56 7.56 0 006.273-4.49" stroke="#263238" stroke-linecap="round" stroke-linejoin="round"/><path d="M84.329 21.873s2.432 1.752 4.48 1.752a4.619 4.619 0 012.442 4.136m-5.948-2.087a6.667 6.667 0 00-1.654 4.854m-2.334-3.378s1.773-1.17 2.54 0" stroke="#263238" stroke-linecap="round" stroke-linejoin="round"/><path d="M210.188 97.078s-12.142-8.863-22.531-7.268c0 0-55.313 6.234-56.613 6.234 0 0-14.771-56.2-17.666-60.956 0 0-.512-3.94-2.078-4.49 0 0-6.529 17.912-17.262 21.516 0 0 .984 3.407 3.348 3.407 0 0-.365 61.055 8.203 68.312 8.567 7.258 80.965 13.245 80.965 13.245l23.634-40z" fill="url(#paint1_linear)"/><path opacity=".2" d="M170.572 131.297l-3.614 3.939c-22.088-2.314-55.678-6.558-61.35-11.364-8.567-7.277-8.203-68.311-8.203-68.311-1.516 0-2.471-1.428-2.954-2.443 7.977-.325 17.726-8.31 17.726-8.31 1.516 8.537-9.582 18.335-9.582 18.335s-.581 35.037 4.097 52.684c4.677 17.647 63.88 15.47 63.88 15.47z" fill="#000"/><path d="M210.188 97.078s-12.142-8.863-22.531-7.268c0 0-55.313 6.234-56.613 6.234 0 0-14.771-56.2-17.666-60.956 0 0-.512-3.94-2.078-4.49 0 0-6.529 17.912-17.262 21.516 0 0 .984 3.407 3.348 3.407 0 0-.365 61.055 8.203 68.312 8.567 7.258 80.965 13.245 80.965 13.245l23.634-40z" stroke="#263238" stroke-linecap="round" stroke-linejoin="round"/><path d="M191.951 100.199s2.235-7.533 12.172-5.8c9.936 1.733 34.653 2.422 47.12-1.477 0 0-31.916 41.3-50.725 33.895-18.808-7.405-8.567-26.618-8.567-26.618z" fill="#fff" stroke="#263238" stroke-linecap="round" stroke-linejoin="round"/><path d="M245.255 9.76s-2.885-9.847-10.054-7.73c-7.169 2.117-6.194 1.822-10.153-.296-3.958-2.117-6.4-.305-7.75 2.718-1.349 3.023-4.086 2.275-8.311.837-4.224-1.437-7.878.414-7.73 4.471.148 4.057-5.249-.167-8.272 4.363-3.023 4.53-1.211 4.224-1.812 7.877-.601 3.654-6.952 5.741-5.741 9.07 1.211 3.328 6.037 9.06 1.507 11.482-4.53 2.423-6.047 9.976-1.665 12.24 4.383 2.265-3.643 9.06-.748 15.254 2.639 5.633 9.966 6.943 6.647 12.684a5.242 5.242 0 000 5.908 1.474 1.474 0 001.61.6 1.477 1.477 0 001.088-1.329 4.55 4.55 0 01.66-2.196c1.507-2.412 3.585 0 6.017-4.53 0 0-1.566 5.141 3.604 6.953 2.698.985 3.181 2.54 3.013 3.86a1.113 1.113 0 001.862.985 4.735 4.735 0 001.211-4.225s8.459 6.953 14.505 5.436c6.046-1.516 13.895-3.624 14.2-8.153a9.602 9.602 0 011.773 4.44 1.418 1.418 0 002.521.798 8.666 8.666 0 002.048-4.923 6.796 6.796 0 002.954 3.574 1.762 1.762 0 002.482-2.019 2.866 2.866 0 011.221-3.377c3.023-1.812 5.13-5.13 3.318-9.365 0 0 4.55 3.023 3.033 7.553a4.29 4.29 0 00.463 4.274.986.986 0 001.605-.985 3.39 3.39 0 01.345-3.319c2.107-3.318 7.563-7.356 3.328-12.033-4.234-4.678-1.26-7.632-1.26-7.632s-.601 3.023 4.54 4.983c5.14 1.96 1.969 4.796 2.481 6.893a4.33 4.33 0 001.123 1.97 1.1 1.1 0 001.442.12 1.106 1.106 0 00.32-1.41 3.217 3.217 0 01-.236-3.181c2.59-4.668-4.224-6.805-4.924-10.882-.699-4.077.296-8.675.7-12.663.364-3.457.64-6.096-1.546-9.07-1.418-1.97-3.221-3.722-3.939-6.036a14.754 14.754 0 01-.158-5.466c.292-1.82.184-3.681-.315-5.455-1.251-3.516-5.426-2.955-7.268-5.909-1.733-2.757-.246-6.45-3.574-8.33a5.32 5.32 0 00-6.165 1.171z" fill="#263238"/><path d="M211.38 101.036c4.747-3.013 2.502-12.91.572-18.936-.906-2.846-1.744-4.835-1.744-4.835h.079l24.914-12.802c-3.151 13.255 0 31.364 0 31.364" fill="#fff"/><path d="M211.38 101.036c4.747-3.013 2.502-12.91.572-18.936-.906-2.846-1.744-4.835-1.744-4.835h.079l24.914-12.802c-3.151 13.255 0 31.364 0 31.364" stroke="#263238" stroke-linecap="round" stroke-linejoin="round"/><path d="M220.716 77.225a11.696 11.696 0 01-8.764 4.924c-.906-2.846-1.744-4.835-1.744-4.835h.079l10.429-.089z" fill="#263238"/><path d="M232.148 71.947c7.701-4.845 14.171-12.201 15.756-22.777 2.955-19.34 2.787-37.007-30.438-34.87-14.555.985-20.197 15.273-20.079 19.784.266 10.448-8.065 28.833 2.255 44.096 1.536 2.265 11.571 2.354 22.137-1.32" fill="#fff"/><path d="M232.148 71.947c7.701-4.845 14.171-12.201 15.756-22.777 2.955-19.34 2.787-37.007-30.438-34.87-14.555.985-20.197 15.273-20.079 19.784.266 10.448-8.065 28.833 2.255 44.096 1.536 2.265 11.571 2.354 22.137-1.32m-7.326-39.852s5.238-1.97 8.252 5.78m-19.095-6.656a9.216 9.216 0 00-6.184-2.049" stroke="#263238" stroke-linecap="round" stroke-linejoin="round"/><path d="M204.28 47.348c-2.718 4.46-6.027 2.245-5.909 4.46.128 1.842 4.382 5.072 4.382 5.072" stroke="#263238" stroke-linecap="round" stroke-linejoin="round"/><path d="M218.499 47.417c-.285 1.211-1.201 2.038-2.028 1.831-.827-.206-1.27-1.339-.985-2.56.286-1.221 1.202-2.029 2.039-1.832.837.197 1.27 1.35.974 2.56zm-16.011-2.984c-.197 1.231-1.044 2.117-1.891 1.97-.847-.148-1.369-1.24-1.172-2.482.197-1.24 1.044-2.117 1.881-1.97.837.148 1.379 1.251 1.182 2.482z" fill="#263238"/><path d="M211.685 61.233c-.323.73-.695 1.437-1.112 2.117-1.271 2.068-3.526 4.796-6.273 3.94-.837-.257-1.221-1.449-1.379-2.729a19.017 19.017 0 01-.059-3.594 24.21 24.21 0 004.382.492c1.484.147 2.98.07 4.441-.226z" fill="#fff"/><path opacity=".4" d="M211.685 61.233c-.323.73-.695 1.437-1.112 2.117-2.649-.473-5.643.414-7.652 1.221a19.016 19.016 0 01-.059-3.594l8.823.256z" fill="#000"/><path d="M211.685 61.233c-.323.73-.695 1.437-1.112 2.117-1.271 2.068-3.526 4.796-6.273 3.94-.837-.257-1.221-1.449-1.379-2.729a19.017 19.017 0 01-.059-3.594 24.21 24.21 0 004.382.492c1.484.147 2.98.07 4.441-.226v0z" stroke="#263238" stroke-linecap="round" stroke-linejoin="round"/><path d="M217.298 22.276s.818-1.812 2.452 1.812c1.635 3.624-5.258 7.228 0 9.956 5.259 2.728 5.475 9.188 2.955 11.699-2.521 2.51 4.116 3.722 5.022 6.145.906 2.422-1.812 4.382-1.202 7.326.611 2.944 4.392 5.84 4.304 7.415-.089 1.576-3.388 4.077-1.133 6.756 2.255 2.678 8.607.984 9.217 6.39 0 0 19.036-21.162 19.331-40.847.295-19.685-13.895-27.828-28.361-29.08-14.466-1.25-36.859 5.781-38.671 30.99 0 0 .68-1.595 3.329-1.969 2.649-.374 3.939-3.939 3.614-7.878-.325-3.939 2.353-1.516 6.007-2.422 3.653-.906 2.442-6.037 4.864-6.893 2.423-.857 4.186 3.929 8.272.6z" fill="#263238"/><path d="M204.123 13.788c-.148 2.412-7.553.295-11.325 2.412-3.772 2.117-2.875 5.741-2.57 7.878.305 2.137-3.122 4.835-5.909 6.49-2.786 1.654-2.826 5.051.798 8.271 3.624 3.22.542 4.117-2.826 6.992-3.368 2.876-3.25 6.381 0 8.46m32.162-33.679s6.174 1.211 4.362 4.688c-1.812 3.476-4.362 7.789.936 11.688 5.298 3.9-2.295 8.253 1.034 11.729 3.328 3.476 6.716 3.318 4.264 9.06-2.453 5.74 1.969 7.188 1.969 7.188m-25.436-4.372s6.056 1.565 10.743.512" stroke="#263238" stroke-linecap="round" stroke-linejoin="round"/><path d="M243.906 70.046a1.968 1.968 0 00.522 2.718m.03-11.64c2.658 1.418 3.436 3.663 1.723 6.283m-18.415-43.555a14.774 14.774 0 007.041 12.585c1.97 1.97.985 3.939 0 6.893 0 3.94 5.909 3.94 6.893 6.893 0 2.955-4.923 5.909-.108 9.415M225.344 15.64a9.4 9.4 0 012.196 5.11m29.591 42.354a5.468 5.468 0 00.295 3.023m-6.341-14.377c-1.054 2.855 1.565 2.6 3.417 2.816 3.072.354 3.998 2.206 3.308 5.298m-18.542-34.83c.532 5.701 9.552 4.923 7.977 11.54-.739 3.064-.611 4.925 1.792 7.505 1.241 1.359 3.86 2.265 2.895 4.49m10.448 1.812a7.362 7.362 0 00-.206 3.141m-15.245-35.894c1.97.138 1.389 2.659 1.97 3.94.797 1.791 2.353 2.244 3.939 3.2 3.161 1.97 2.846 3.761 2.481 7.11-.423 3.88.827 5.484 4.077 7.385 3.25 1.9 5.14 3.584 3.939 7.671m-63.979-24.658c-2.885 1.389-7.809 1.704-6.981 5.909.827 4.204 4.421 6.135.197 9.788-3.565 3.092-3.171 4.717-.847 8.36 1.969 3.053 2.511 5.81.078 8.863m18.386-39.104c-4.924-4.274-5.909 1.635-8.006 4.343" stroke="#fff" stroke-linecap="round" stroke-linejoin="round"/><path d="M196.51 93.552s-9.001 9.926 1.162 17.597c10.162 7.672 47.09-18.198 47.09-18.198s13.314-3.387 20.306 1.074c6.992 4.46.443 58.247-13.787 81.507-4.224 6.893-9.286 17.214-9.286 17.214s1.428 9-6.755 11.728c-15.549 5.18-55.422 4.924-67.051-1.546-13.649-7.602.049-5.249.856-46.648 0 0-5.977-15.283-3.702-26.223.847-4.067 3.318-9.976 6.804-15.924" fill="url(#paint2_linear)"/><path opacity=".2" d="M251.242 175.552c-4.224 6.893-9.286 17.213-9.286 17.213s1.428 9.001-6.755 11.729c-15.549 5.179-55.422 4.923-67.051-1.546-13.649-7.603.049-5.249.856-46.648a73.154 73.154 0 01-3.348-12.142c9.001 5.19 19.469 4.688 19.469 4.688 8.971-18.592 21.821-15.126 21.821-15.126s3.486-3.112 7.504-6.017c4.018-2.905 16.633-.699 16.633-.699l14.692-2.954c-.276-5.456 5.062-4.924 5.062-4.924l2.038 1.91c-1.191-4.51 0-7.257 0-7.257l12.9 16.209c-2.659 16.347-7.71 34.466-14.535 45.564z" fill="#000"/><path d="M196.51 93.552s-9.001 9.926 1.162 17.597c10.162 7.672 47.09-18.198 47.09-18.198s13.314-3.387 20.306 1.074c6.992 4.46.443 58.247-13.787 81.507-4.224 6.893-9.286 17.214-9.286 17.214s1.428 9-6.755 11.728c-15.549 5.18-55.422 4.924-67.051-1.546-13.649-7.602.049-5.249.856-46.648 0 0-5.977-15.283-3.702-26.223.847-4.067 3.318-9.976 6.804-15.924m-8.015 7.504a15.464 15.464 0 001.969 5.367m-2.511-13.235a34.82 34.82 0 00.118 4.855m-32.644-22.581s-7.208 7.209-5.85 12.654m1.104-11.206a24.298 24.298 0 004.313-3.102m-10.054 5.741a31.27 31.27 0 002.954-1.171M97.405 55.521s10.478-2.137 14.771-10.753m98.997 70.133a31.936 31.936 0 003.811-1.132" stroke="#263238" stroke-linecap="round" stroke-linejoin="round"/><path d="M193.005 92.735c-2.669 4.224-4.432 9.936-2.708 14.82 2.6 7.406 11.009 8.922 17.873 7.927m-15.214-14.446s7.641 5.909 12.122 7.662" stroke="#263238" stroke-linecap="round" stroke-linejoin="round"/><path d="M247.097 136.28s-22.846 1.034-31.846.109c-5.781-.601-7.622 2.274-15.52 3.781-2.954.571-9.178 9.749-9.178 9.749l.985 12.024s6.893 4.973 7.779 3.574c.887-1.398-2.412-4.628-2.412-4.628l6.086.985a4.656 4.656 0 00-1.871-4.176l3.535-3.938s4.539 1.368 9.512-3.024l34.132 1.31-1.202-15.766z" fill="#fff"/><path opacity=".2" d="M248.318 151.997l-34.132-1.33c-4.972 4.392-9.512 3.024-9.512 3.024l-3.535 3.939a4.656 4.656 0 011.871 4.175l-6.086-.985s3.299 3.23 2.413 4.628c-.887 1.399-7.78-3.574-7.78-3.574l-.985-12.024a69.875 69.875 0 014.638-6.036c6.46 3.939 23.231.984 23.231.984.108-2.905 1.831-5.987 3.279-8.104 10.468.236 25.396-.443 25.396-.443l1.202 15.746z" fill="#000"/><path d="M247.097 136.28s-22.846 1.034-31.846.109c-5.781-.601-7.622 2.274-15.52 3.781-2.954.571-9.178 9.749-9.178 9.749l.985 12.024s6.893 4.973 7.779 3.574c.887-1.398-2.412-4.628-2.412-4.628l6.086.985a4.656 4.656 0 00-1.871-4.176l3.535-3.938s4.539 1.368 9.512-3.024l34.132 1.31-1.202-15.766zm-42.423 17.43s-3.693-.295-5.338-4.864m4.078 4.529s-6.057 4.924-9.395 1.537m2.521 1.162s.985 3.289.384 4.815m4.214-3.2a8.018 8.018 0 01-2.954.492" stroke="#263238" stroke-linecap="round" stroke-linejoin="round"/><path d="M324.99 152.952v211.06a2.549 2.549 0 01-2.56 2.551H3.392a2.559 2.559 0 01-2.56-2.551v-211.06a2.548 2.548 0 011.58-2.359 2.55 2.55 0 01.98-.192h319.057a2.55 2.55 0 012.541 2.551z" fill="#fff"/><path opacity=".2" d="M324.99 152.952v9.532c-8.921 3.112-22.019 5.505-32.614 4.993-14.23-.689-67.426-12.684-86.323-17.026H322.45a2.547 2.547 0 012.54 2.501z" fill="#000"/><path d="M324.99 152.952v211.06a2.549 2.549 0 01-2.56 2.551H3.392a2.559 2.559 0 01-2.56-2.551v-211.06a2.548 2.548 0 011.58-2.359 2.55 2.55 0 01.98-.192h319.057a2.55 2.55 0 012.541 2.551z" stroke="#263238" stroke-miterlimit="10"/><path d="M26.169 150.401v216.162H3.392a2.559 2.559 0 01-2.56-2.551v-211.06a2.548 2.548 0 011.58-2.359 2.55 2.55 0 01.98-.192h22.777z" fill="#263238"/><path d="M13.516 160.416l-7.11 3.988 7.11 3.999 7.1-3.999-7.1-3.988z" fill="url(#paint3_linear)"/><path d="M13.516 170.008l-4.983-2.797-2.127 1.192 7.11 3.988 7.1-3.988-2.127-1.192-4.973 2.797z" fill="url(#paint4_linear)"/><path d="M13.516 174.006l-4.983-2.807-2.127 1.192 7.11 3.998 7.1-3.998-2.127-1.192-4.973 2.807z" fill="url(#paint5_linear)"/><path d="M91.23 190.855a26.49 26.49 0 01-26.499 26.48 26.091 26.091 0 01-3.16-.187 26.49 26.49 0 1129.66-26.293z" fill="url(#paint6_linear)"/><path opacity=".6" d="M91.23 190.855a26.49 26.49 0 01-26.499 26.48 26.091 26.091 0 01-3.16-.187 26.49 26.49 0 1129.66-26.293z" fill="#fff"/><path d="M91.23 190.855a26.49 26.49 0 01-26.499 26.48 26.091 26.091 0 01-3.16-.187 26.49 26.49 0 1129.66-26.293v0z" stroke="#263238" stroke-linecap="round" stroke-linejoin="round"/><path d="M75.721 214.951a26.393 26.393 0 01-10.99 2.384 25.89 25.89 0 01-3.16-.188c-5.83-4.195-11.128-11.048-11.128-11.048 1.227.361 2.482.618 3.752.768a47.79 47.79 0 002.826.266c2.866.172 5.74.172 8.607 0 1.624-.109 3.062-.256 4.086-.434a4.443 4.443 0 013.94.837 3.53 3.53 0 011.063 1.527 10.297 10.297 0 011.004 5.888z" fill="#BFBFBF" stroke="#263238" stroke-linecap="round" stroke-linejoin="round"/><path d="M52.895 172.075s1.182-4.027 4.106-3.161c2.925.867 2.531.749 4.156-.118a2.042 2.042 0 012.694.251c.225.241.39.534.477.852.551 1.241 1.674.985 3.397.345 1.724-.64 3.24.167 3.161 1.831-.078 1.665 2.147-.068 3.388 1.783 1.24 1.851.492 1.733.738 3.21.246 1.477 2.846 2.354 2.354 3.713s-2.472 3.702-.62 4.697c1.85.994 2.471 4.077.679 5.002-1.792.926 1.497 3.713.305 6.244-1.073 2.304-4.077 2.846-2.718 5.189a2.13 2.13 0 010 2.433.598.598 0 01-.658.252.605.605 0 01-.445-.548 1.854 1.854 0 00-.265-.896c-.62-.985-1.468 0-2.462-1.861a2.273 2.273 0 01-1.477 2.846c-1.103.384-1.3 1.044-1.231 1.585a.453.453 0 01-.759.394 1.967 1.967 0 01-.492-1.733s-3.466 2.846-5.908 2.226c-2.443-.621-5.682-1.487-5.81-3.339a3.94 3.94 0 00-.73 1.822.58.58 0 01-.984.325 3.602 3.602 0 01-.837-2.019 2.776 2.776 0 01-1.31 1.428.723.723 0 01-.748-.109.723.723 0 01-.236-.718 1.163 1.163 0 00-.493-1.379 2.954 2.954 0 01-1.359-3.83s-1.86 1.24-1.24 3.092a1.75 1.75 0 01-.188 1.743.383.383 0 01-.501.103.384.384 0 01-.158-.487 1.411 1.411 0 00-.138-1.359c-.867-1.359-3.102-3.014-1.369-4.924 1.733-1.91.502-3.112.502-3.112s.246 1.241-1.851 2.039c-2.098.797-.798 1.969-.985 2.806-.075.308-.232.59-.453.817a.45.45 0 01-.607.067.454.454 0 01-.122-.598 1.31 1.31 0 00.099-1.3c-1.054-1.901 1.733-2.787 2.019-4.451a20.411 20.411 0 00-.296-5.18c-.148-1.408-.256-2.491.63-3.703a8.425 8.425 0 001.596-2.471 5.912 5.912 0 00.069-2.236 5.176 5.176 0 01.128-2.235c.512-1.438 2.225-1.192 2.954-2.403.729-1.211.098-2.649 1.467-3.407a2.166 2.166 0 012.531.482z" fill="#263238"/><path d="M66.75 209.417c-1.97-1.24-.984-5.288-.236-7.75.374-1.162.709-1.969.709-1.969l-10.192-5.249c1.29 5.416 0 12.802 0 12.802" fill="#BFBFBF"/><path d="M66.75 209.417c-1.97-1.24-.984-5.288-.236-7.75.374-1.162.709-1.969.709-1.969l-10.192-5.249c1.29 5.416 0 12.802 0 12.802" stroke="#263238" stroke-linecap="round" stroke-linejoin="round"/><path d="M62.93 199.668a4.763 4.763 0 003.584 1.97c.374-1.162.709-1.97.709-1.97h-4.294z" fill="#263238"/><path d="M58.252 197.512a13.294 13.294 0 01-6.46-9.316c-1.22-7.878-1.142-15.135 12.448-14.259 5.957.374 8.262 6.243 8.212 8.085-.108 4.274 3.31 11.817-.915 18.04-.63.926-4.737.985-9.06-.541" fill="#BFBFBF"/><path d="M58.252 197.512a13.294 13.294 0 01-6.46-9.316c-1.22-7.878-1.142-15.135 12.448-14.259 5.957.374 8.262 6.243 8.212 8.085-.108 4.274 3.31 11.817-.915 18.04-.63.926-4.737.985-9.06-.541m3.013-16.298s-2.137-.788-3.378 2.363m7.819-2.727a3.757 3.757 0 012.521-.837" stroke="#263238" stroke-linecap="round" stroke-linejoin="round"/><path d="M69.645 187.457c1.113 1.822 2.462.916 2.403 1.822-.049.748-1.792 2.068-1.792 2.068" stroke="#263238" stroke-linecap="round" stroke-linejoin="round"/><path d="M63.835 187.477c.118.502.493.837.827.758.335-.079.522-.551.404-1.053-.118-.503-.492-.828-.827-.749-.335.079-.522.552-.404 1.044zm6.52-1.221c.079.512.433.867.778.818.345-.05.561-.512.473-.985-.089-.473-.424-.867-.768-.817-.345.049-.483.482-.483.984z" fill="#263238"/><path d="M66.623 193.13s1.27 3.023 3.023 2.481c.797-.246.59-2.59.59-2.59" fill="#fff"/><path d="M66.623 193.13s1.27 3.023 3.023 2.481c.797-.246.59-2.59.59-2.59" stroke="#263238" stroke-linecap="round" stroke-linejoin="round"/><path d="M64.328 177.196s-.335-.738-.985.739c-.65 1.477 2.147 2.954 0 4.077-2.147 1.122-2.245 3.752-1.212 4.786 1.035 1.034-1.683 1.516-2.048 2.511-.364.994.739 1.792.493 2.954-.246 1.162-1.802 2.393-1.763 3.033.04.64 1.388 1.674.463 2.767-.926 1.093-3.526.424-3.772 2.61 0 0-7.78-8.656-7.878-16.741-.098-8.085 5.682-11.384 11.62-11.886 5.938-.502 15.077 2.373 15.815 12.684a1.618 1.618 0 00-1.359-.798c-1.083-.148-1.605-1.625-1.477-3.23.128-1.605-.985-.62-2.462-.985-1.477-.364-.984-2.471-1.97-2.846-.984-.374-1.791 1.684-3.466.325z" fill="#263238"/><path d="M69.715 173.73c.059.985 3.092.128 4.638.985 1.546.857 1.172 2.354 1.044 3.22-.128.867 1.28 1.97 2.432 2.659 1.152.689 1.152 2.058-.325 3.378-1.477 1.319-.226 1.683 1.152 2.855 1.379 1.172 1.33 2.61 0 3.467M65.49 176.517s-2.52.492-1.782 1.91c.739 1.418 1.782 3.191-.384 4.786-2.167 1.595.935 3.378-.424 4.796-1.358 1.418-2.747 1.359-1.743 3.712 1.005 2.354-.787 2.954-.787 2.954m10.388-1.811a11.096 11.096 0 01-4.392.216" stroke="#263238" stroke-linecap="round" stroke-linejoin="round"/><path d="M83.067 209.959a26.422 26.422 0 01-18.335 7.376 26.474 26.474 0 01-20.581-9.818c.097-.391.322-.737.64-.985 2.865-1.822 8.3-.433 8.3-.433l1.104.748c3.555 2.344 14.682 9.316 18.158 6.687a4.308 4.308 0 001.916-4.443 4.301 4.301 0 00-.645-1.574 6.573 6.573 0 00-.788-1.172s4.707-1.891 10.231 3.614z" fill="url(#paint7_linear)" stroke="#263238" stroke-linecap="round" stroke-linejoin="round"/><path d="M94.195 214.64a9.199 9.199 0 10-13.009-13.008 9.199 9.199 0 0013.01 13.008z" fill="#263238"/><path d="M89.085 203.302h-2.787a3.447 3.447 0 00-3.447 3.447v2.787a3.446 3.446 0 003.447 3.446h2.787a3.446 3.446 0 003.446-3.446v-2.787a3.447 3.447 0 00-3.447-3.447z" stroke="#fff" stroke-miterlimit="10"/><path d="M89.469 208.137a1.785 1.785 0 01-2.128 1.759 1.786 1.786 0 01-1.3-2.436 1.781 1.781 0 011.655-1.095 1.77 1.77 0 011.773 1.772z" stroke="#fff" stroke-miterlimit="10"/><path d="M90.926 205.813a.59.59 0 01-.83.614.582.582 0 01-.321-.366.59.59 0 01.955-.616.593.593 0 01.196.368z" fill="#fff"/><path d="M135.111 187.31H101.63a3.534 3.534 0 100 7.07h33.481a3.535 3.535 0 100-7.07z" fill="#263238"/><path opacity=".6" d="M183.728 162.327h-24.146a2.547 2.547 0 00-2.55 2.55 2.549 2.549 0 002.55 2.551h24.146a2.553 2.553 0 002.551-2.551 2.55 2.55 0 00-2.551-2.55z" fill="#263238"/><path d="M147.785 156.074v204.945" stroke="#263238" stroke-miterlimit="10"/><path d="M53.673 263.618c6.706 0 12.142-5.437 12.142-12.142 0-6.706-5.436-12.142-12.142-12.142-6.706 0-12.142 5.436-12.142 12.142 0 6.705 5.436 12.142 12.142 12.142z" fill="#BFBFBF" stroke="#263238" stroke-miterlimit="10"/><path d="M70.099 259.334a4.286 4.286 0 01-2.645 3.957 4.281 4.281 0 01-5.597-5.596 4.285 4.285 0 013.958-2.645 4.286 4.286 0 014.284 4.284z" fill="url(#paint8_linear)" stroke="#263238" stroke-linecap="round" stroke-linejoin="round"/><path d="M53.673 303.49c6.706 0 12.142-5.436 12.142-12.142 0-6.706-5.436-12.142-12.142-12.142-6.706 0-12.142 5.436-12.142 12.142 0 6.706 5.436 12.142 12.142 12.142z" fill="#BFBFBF" stroke="#263238" stroke-miterlimit="10"/><path d="M70.099 299.196a4.281 4.281 0 01-2.645 3.958 4.288 4.288 0 01-4.668-.929 4.281 4.281 0 01.649-6.59 4.282 4.282 0 012.38-.722 4.294 4.294 0 014.284 4.283z" fill="url(#paint9_linear)" stroke="#263238" stroke-linecap="round" stroke-linejoin="round"/><path d="M62.258 339.79c4.742-4.742 4.742-12.43 0-17.172-4.741-4.741-12.43-4.741-17.17 0-4.743 4.742-4.743 12.43 0 17.172 4.74 4.741 12.429 4.741 17.17 0z" fill="#BFBFBF" stroke="#263238" stroke-miterlimit="10"/><path d="M70.099 339.069a4.284 4.284 0 11-8.569-.02 4.284 4.284 0 018.569.02z" fill="url(#paint10_linear)" stroke="#263238" stroke-linecap="round" stroke-linejoin="round"/><g opacity=".3"><path opacity=".4" d="M317.397 175.522H160.015v46.914h157.382v-46.914zm.001 124.078H160.016v46.914h157.382V299.6zm0-72.871H160.016v46.913h157.382v-46.913z" fill="#000"/></g><path d="M314.443 173.553H157.061v46.913h157.382v-46.913z" fill="url(#paint11_linear)"/><path opacity=".6" d="M314.443 173.553H157.061v46.913h157.382v-46.913z" fill="#fff"/><path d="M314.443 173.553H157.061v46.913h157.382v-46.913z" stroke="#263238" stroke-miterlimit="10"/><path d="M203.867 178.28h-41.35v31.551h41.35V178.28z" fill="#263238"/><path opacity=".3" d="M203.867 202.189v7.642h-41.35v-7.11l13.068-9.68 13.441 9.68 7.593-4.845 7.248 4.313zm-10.419-14.968a4.163 4.163 0 01-4.976 4.096 4.165 4.165 0 01.821-8.251 4.155 4.155 0 014.155 4.155z" fill="#fff"/><path opacity=".4" d="M180.124 212.805h-16.298a1.725 1.725 0 00-1.709 1.029 1.72 1.72 0 00.407 1.953 1.726 1.726 0 001.302.455h16.298a1.722 1.722 0 100-3.437zm126.855-33.432h-95.067a1.724 1.724 0 100 3.446h95.067a1.72 1.72 0 001.723-1.723 1.724 1.724 0 00-1.723-1.723zm0 9.847h-95.067a1.725 1.725 0 00-1.219 2.942c.323.323.762.505 1.219.505h95.067a1.725 1.725 0 001.219-2.942 1.725 1.725 0 00-1.219-.505zm-19.695 9.848h-75.372a1.724 1.724 0 100 3.446h75.372a1.724 1.724 0 100-3.446z" fill="#263238"/><path opacity=".6" d="M183.728 286.405h-24.146a2.55 2.55 0 000 5.101h24.146a2.553 2.553 0 002.551-2.551 2.55 2.55 0 00-2.551-2.55z" fill="#263238"/><path d="M314.443 297.631H157.061v46.913h157.382v-46.913z" fill="url(#paint12_linear)"/><path opacity=".6" d="M314.443 297.631H157.061v46.913h157.382v-46.913z" fill="#fff"/><path d="M314.443 297.631H157.061v46.913h157.382v-46.913z" stroke="#263238" stroke-miterlimit="10"/><path d="M203.867 302.357h-41.35v31.552h41.35v-31.552z" fill="#263238"/><path opacity=".3" d="M203.867 326.267v7.642h-41.35v-7.11l13.068-9.68 13.441 9.68 7.593-4.845 7.248 4.313zm-10.419-14.968a4.163 4.163 0 01-4.976 4.096 4.16 4.16 0 01-3.275-3.276 4.165 4.165 0 015.686-4.659 4.16 4.16 0 012.565 3.839z" fill="#fff"/><path opacity=".4" d="M180.124 336.883h-16.298a1.725 1.725 0 00-1.709 1.029 1.72 1.72 0 00.407 1.953 1.726 1.726 0 001.302.455h16.298a1.726 1.726 0 001.709-2.408 1.73 1.73 0 00-1.011-.938 1.725 1.725 0 00-.698-.091zm126.855-33.432h-95.067a1.724 1.724 0 100 3.446h95.067a1.724 1.724 0 100-3.446zm0 9.847h-95.067a1.725 1.725 0 00-1.219 2.942c.323.323.762.505 1.219.505h95.067a1.725 1.725 0 001.219-2.942 1.725 1.725 0 00-1.219-.505zm-19.695 9.848h-75.372a1.72 1.72 0 00-1.724 1.723 1.724 1.724 0 001.724 1.723h75.372a1.724 1.724 0 100-3.446z" fill="#263238"/><path d="M314.443 224.76H157.061v46.913h157.382V224.76z" fill="url(#paint13_linear)"/><path opacity=".6" d="M314.443 224.76H157.061v46.913h157.382V224.76z" fill="#fff"/><path d="M314.443 224.76H157.061v46.913h157.382V224.76z" stroke="#263238" stroke-miterlimit="10"/><path d="M203.867 229.486h-41.35v31.552h41.35v-31.552z" fill="#263238"/><path opacity=".3" d="M203.867 253.396v7.641h-41.35v-7.109l13.068-9.68 13.441 9.68 7.593-4.845 7.248 4.313zm-10.419-14.968a4.166 4.166 0 11-4.155-4.156 4.155 4.155 0 014.155 4.156z" fill="#fff"/><path opacity=".4" d="M180.124 264.012h-16.298a1.725 1.725 0 00-1.709 1.029 1.72 1.72 0 00.407 1.953 1.726 1.726 0 001.302.455h16.298a1.722 1.722 0 100-3.437zm126.855-33.432h-95.067a1.724 1.724 0 100 3.446h95.067a1.72 1.72 0 001.723-1.723 1.724 1.724 0 00-1.723-1.723zm0 9.847h-95.067a1.725 1.725 0 00-1.219 2.942c.323.323.762.505 1.219.505h95.067a1.725 1.725 0 001.219-2.942 1.725 1.725 0 00-1.219-.505zm-19.695 9.847h-75.372a1.725 1.725 0 00-1.219 2.942c.323.323.762.505 1.219.505h75.372a1.725 1.725 0 001.219-2.942 1.725 1.725 0 00-1.219-.505zm-162.69-.522H77.769a1.725 1.725 0 000 3.447h46.825a1.723 1.723 0 000-3.447zm0 79.735H77.769a1.725 1.725 0 000 3.447h46.825a1.723 1.723 0 000-3.447zm.001-39.862H77.77a1.726 1.726 0 00-1.71 1.029 1.721 1.721 0 001.71 2.407h46.825a1.725 1.725 0 001.709-1.029 1.72 1.72 0 00-.408-1.953 1.722 1.722 0 00-1.301-.454z" fill="#263238"/><path d="M262.233 92.735c14.012 4.609 48.075 22.787 53.895 30.576 5.82 7.79 1.664 23.998-11.315 28.105-12.979 4.106-73.758 0-73.758 0s-4.923 3.171-6.341 1.822c-1.418-1.349-1.97-23.634 3.131-23.496 4.146.137 5.791 2.137 5.791 2.137l26.509-5.023s-8.863-10.428-8.863-21.093" fill="url(#paint14_linear)"/><path opacity=".2" d="M304.813 151.416c-12.989 4.096-73.758 0-73.758 0s-4.923 3.171-6.341 1.822c-.828-.768-1.359-8.253-.729-14.575.768 3.28 1.743 6.963 2.422 8.046 1.3 2.078 6.224 0 6.224 0a36.432 36.432 0 01.985-13.028l5.13 10.95s48.726 2.856 66.648-4.678c7.454-3.131 10.645-9.069 11.817-14.928 4.126 8.242-.305 22.57-12.398 26.391zm-30.153-27.543l-14.545 2.954a45.232 45.232 0 01-3.023-4.215c.168-3.87.709-8.981 2.354-10.96 2.806-3.368 2.284 5.446 4.924 10.389 0 0 9.995-8.075 13.953-6.243 3.959 1.831-1.171 2.206-3.663 8.075z" fill="#000"/><path d="M262.233 92.735c14.012 4.609 48.075 22.787 53.895 30.576 5.82 7.79 1.664 23.998-11.315 28.105-12.979 4.106-73.758 0-73.758 0s-4.923 3.171-6.341 1.822c-1.418-1.349-1.97-23.634 3.131-23.496 4.146.137 5.791 2.137 5.791 2.137l26.509-5.023s-8.863-10.428-8.863-21.093m42.117 21.497a8.728 8.728 0 013.033 4.037m-36.287-4.441c10.3-1.674 20.266-6.607 30.28-1.487m2.531-4.628a6.775 6.775 0 012.698 1.29m-21.457 1.743c3.457-4.333 10.488-4.116 15.431-3.624m-54.998 11.541a13.319 13.319 0 00-1.723 9.542m20.305-19.94a9.328 9.328 0 004.215 1.861m-9.099-7.366a21.627 21.627 0 002.481 3.289" stroke="#263238" stroke-linecap="round" stroke-linejoin="round"/><defs><linearGradient id="paint0_linear" x1="102.606" y1="35.088" x2="102.606" y2="53.491" gradientUnits="userSpaceOnUse"><stop stop-color="#0CDB78"/><stop offset="1" stop-color="#26B99A"/></linearGradient><linearGradient id="paint1_linear" x1="152.113" y1="30.597" x2="152.113" y2="137.078" gradientUnits="userSpaceOnUse"><stop stop-color="#0CDB78"/><stop offset="1" stop-color="#26B99A"/></linearGradient><linearGradient id="paint2_linear" x1="215.025" y1="91.72" x2="215.025" y2="208.096" gradientUnits="userSpaceOnUse"><stop stop-color="#0CDB78"/><stop offset="1" stop-color="#26B99A"/></linearGradient><linearGradient id="paint3_linear" x1="13.511" y1="160.416" x2="13.511" y2="168.403" gradientUnits="userSpaceOnUse"><stop stop-color="#0CDB78"/><stop offset="1" stop-color="#26B99A"/></linearGradient><linearGradient id="paint4_linear" x1="13.511" y1="167.211" x2="13.511" y2="172.391" gradientUnits="userSpaceOnUse"><stop stop-color="#0CDB78"/><stop offset="1" stop-color="#26B99A"/></linearGradient><linearGradient id="paint5_linear" x1="13.511" y1="171.199" x2="13.511" y2="176.389" gradientUnits="userSpaceOnUse"><stop stop-color="#0CDB78"/><stop offset="1" stop-color="#26B99A"/></linearGradient><linearGradient id="paint6_linear" x1="64.741" y1="164.359" x2="64.741" y2="217.335" gradientUnits="userSpaceOnUse"><stop stop-color="#0CDB78"/><stop offset="1" stop-color="#26B99A"/></linearGradient><linearGradient id="paint7_linear" x1="63.609" y1="205.593" x2="63.609" y2="217.335" gradientUnits="userSpaceOnUse"><stop stop-color="#0CDB78"/><stop offset="1" stop-color="#26B99A"/></linearGradient><linearGradient id="paint8_linear" x1="65.815" y1="255.05" x2="65.815" y2="263.618" gradientUnits="userSpaceOnUse"><stop stop-color="#0CDB78"/><stop offset="1" stop-color="#26B99A"/></linearGradient><linearGradient id="paint9_linear" x1="65.815" y1="294.913" x2="65.815" y2="303.48" gradientUnits="userSpaceOnUse"><stop stop-color="#0CDB78"/><stop offset="1" stop-color="#26B99A"/></linearGradient><linearGradient id="paint10_linear" x1="65.815" y1="334.775" x2="65.815" y2="343.342" gradientUnits="userSpaceOnUse"><stop stop-color="#0CDB78"/><stop offset="1" stop-color="#26B99A"/></linearGradient><linearGradient id="paint11_linear" x1="235.752" y1="173.553" x2="235.752" y2="220.466" gradientUnits="userSpaceOnUse"><stop stop-color="#0CDB78"/><stop offset="1" stop-color="#26B99A"/></linearGradient><linearGradient id="paint12_linear" x1="235.752" y1="297.631" x2="235.752" y2="344.544" gradientUnits="userSpaceOnUse"><stop stop-color="#0CDB78"/><stop offset="1" stop-color="#26B99A"/></linearGradient><linearGradient id="paint13_linear" x1="235.752" y1="224.76" x2="235.752" y2="271.673" gradientUnits="userSpaceOnUse"><stop stop-color="#0CDB78"/><stop offset="1" stop-color="#26B99A"/></linearGradient><linearGradient id="paint14_linear" x1="271.219" y1="92.735" x2="271.219" y2="153.572" gradientUnits="userSpaceOnUse"><stop stop-color="#0CDB78"/><stop offset="1" stop-color="#26B99A"/></linearGradient></defs></svg>